<?xml version="1.0" encoding="utf-8"?>
<!-- Generator: Adobe Illustrator 24.1.2, SVG Export Plug-In . SVG Version: 6.00 Build 0)  -->
<svg version="1.1" id="Capa_1" xmlns="http://www.w3.org/2000/svg" xmlns:xlink="http://www.w3.org/1999/xlink" x="0px" y="0px"
	 viewBox="0 0 23 18" style="enable-background:new 0 0 23 18;" xml:space="preserve">
<style type="text/css">
	.st0{fill:#7B7B7B;}
</style>
<g>
	<g>
		<path class="st0" d="M2.2,5.5c0.3,0.2,1.2,0.8,2.6,1.8c1.5,1,2.6,1.8,3.3,2.3c0.1,0.1,0.3,0.2,0.5,0.4c0.3,0.2,0.5,0.4,0.7,0.5
			c0.2,0.1,0.4,0.3,0.7,0.4c0.3,0.2,0.5,0.3,0.7,0.3c0.2,0.1,0.4,0.1,0.6,0.1h0h0c0.2,0,0.4,0,0.6-0.1c0.2-0.1,0.5-0.2,0.7-0.3
			c0.3-0.2,0.5-0.3,0.7-0.4c0.2-0.1,0.4-0.3,0.7-0.5c0.3-0.2,0.5-0.3,0.5-0.4c0.8-0.5,2.8-1.9,6-4.2c0.6-0.4,1.1-1,1.6-1.6
			C22.7,3.4,23,2.7,23,2c0-0.6-0.2-1-0.6-1.4C21.9,0.2,21.5,0,20.9,0H2.1C1.4,0,0.9,0.2,0.6,0.7C0.2,1.1,0,1.7,0,2.3
			c0,0.5,0.2,1.1,0.7,1.7C1.2,4.7,1.7,5.2,2.2,5.5z"/>
		<path class="st0" d="M21.7,6.9c-2.8,1.9-4.9,3.4-6.4,4.4c-0.5,0.4-0.9,0.6-1.2,0.8c-0.3,0.2-0.7,0.4-1.2,0.6
			c-0.5,0.2-1,0.3-1.4,0.3h0h0c-0.4,0-0.9-0.1-1.4-0.3c-0.5-0.2-0.9-0.4-1.2-0.6c-0.3-0.2-0.7-0.5-1.2-0.8C6.5,10.5,4.4,9,1.3,6.9
			C0.9,6.6,0.4,6.2,0,5.8V16c0,0.6,0.2,1,0.6,1.4C1,17.8,1.5,18,2.1,18h18.8c0.6,0,1-0.2,1.4-0.6C22.8,17,23,16.5,23,16V5.8
			C22.6,6.2,22.2,6.6,21.7,6.9z"/>
	</g>
</g>
</svg>
