<?xml version="1.0" encoding="utf-8"?>
<!-- Generator: Adobe Illustrator 24.1.2, SVG Export Plug-In . SVG Version: 6.00 Build 0)  -->
<svg version="1.1" xmlns="http://www.w3.org/2000/svg" xmlns:xlink="http://www.w3.org/1999/xlink" x="0px" y="0px"
	 viewBox="0 0 100 600" style="enable-background:new 0 0 100 600;" xml:space="preserve">
<style type="text/css">
	.st0{fill:#7D7D7D;}
	.st1{fill:#6666CD;}
	.st2{opacity:0.9;fill:#FFFFFF;enable-background:new    ;}
	.st3{opacity:0.9;}
	.st4{fill:#FFFFFF;}
</style>
<g id="Слой_2">
</g>
<g id="Слой_3">
	<g>
		<g>
			<g>
				<circle class="st0" cx="25" cy="330.1" r="1"/>
				<path class="st0" d="M25,314.3c-5.9,0-10.7,4.8-10.7,10.7c0,5.9,4.8,10.7,10.7,10.7s10.7-4.8,10.7-10.7
					C35.7,319.1,30.9,314.3,25,314.3z M25,334c-5,0-9-4-9-9s4-9,9-9s9,4,9,9S30,334,25,334z"/>
				<path class="st0" d="M25,319.7c-1.8,0-3.3,1.5-3.3,3.3c0,0.5,0.4,0.8,0.8,0.8c0.5,0,0.8-0.4,0.8-0.8c0-0.9,0.8-1.7,1.7-1.7
					s1.7,0.8,1.7,1.7s-0.8,1.7-1.7,1.7c-0.5,0-0.8,0.4-0.8,0.8v2.1c0,0.5,0.4,0.8,0.8,0.8c0.5,0,0.8-0.4,0.8-0.8v-1.4
					c1.4-0.4,2.5-1.7,2.5-3.2C28.3,321.2,26.8,319.7,25,319.7z"/>
			</g>
		</g>
	</g>
	<g>
		<g>
			<g>
				<path class="st0" d="M25,433.9h-8c-0.5,0-0.9-0.4-0.9-0.9v-16c0-0.5,0.4-0.9,0.9-0.9h8c0.5,0,0.9-0.4,0.9-0.9s-0.4-0.9-0.9-0.9
					h-8c-1.5,0-2.7,1.2-2.7,2.7v16c0,1.5,1.2,2.7,2.7,2.7h8c0.5,0,0.9-0.4,0.9-0.9C25.9,434.3,25.5,433.9,25,433.9z"/>
			</g>
		</g>
		<g>
			<g>
				<path class="st0" d="M35.4,424.4L30,419c-0.3-0.3-0.9-0.3-1.3,0s-0.3,0.9,0,1.3l3.9,3.8H22.3c-0.5,0-0.9,0.4-0.9,0.9
					s0.4,0.9,0.9,0.9h10.4l-3.9,3.8c-0.4,0.3-0.4,0.9,0,1.3c0.2,0.2,0.4,0.3,0.6,0.3s0.5-0.1,0.6-0.3l5.4-5.3
					c0.2-0.2,0.3-0.4,0.3-0.6C35.7,424.8,35.6,424.5,35.4,424.4z"/>
			</g>
		</g>
	</g>
	<g>
		<g>
			<path class="st0" d="M33.1,120.1v-3.4c0-0.4-0.2-0.7-0.5-0.9c-0.3-0.2-0.7-0.2-1.1,0c-3.2,1.8-6.6,2.8-10.3,3.1h-3.3
				c-0.8,0-1.5,0.6-1.6,1.4h-0.7c-0.7,0-1.3,0.6-1.3,1.3v2.9c0,0.7,0.6,1.3,1.3,1.3h0.7c0.1,0.6,0.4,1.1,1,1.3l2.4,6.6
				c0.2,0.4,0.5,0.7,1,0.7h2.4c0.3,0,0.7-0.2,0.9-0.4c0.2-0.3,0.2-0.6,0.1-1l-2.1-5.7c3.4,0.3,6.6,1.4,9.5,3
				c0.2,0.1,0.3,0.1,0.5,0.1s0.4,0,0.5-0.1c0.3-0.2,0.5-0.5,0.5-0.9V126c1.5-0.2,2.6-1.5,2.6-3C35.7,121.5,34.6,120.2,33.1,120.1z
				 M16.3,124.8h-0.7c-0.2,0-0.3-0.1-0.3-0.3v-2.9c0-0.2,0.1-0.3,0.3-0.3h0.7V124.8z M17.7,126.2c-0.2-0.1-0.3-0.3-0.3-0.5v-5.2l0,0
				c0-0.3,0.3-0.6,0.6-0.6h2.8v6.4c0,0-2.8,0-2.9,0C17.8,126.2,17.8,126.2,17.7,126.2z M23.1,133.4L23.1,133.4L23.1,133.4h-2.4l0,0
				l-2.2-6.1h2.4L23.1,133.4z M32.1,129.4C32.1,129.5,32.1,129.5,32.1,129.4C32,129.5,32,129.5,32.1,129.4
				c-3.2-1.8-6.7-2.8-10.3-3.2v-6.5c3.6-0.3,7.1-1.4,10.3-3.2l0,0l0,0V129.4z M33.1,125v-3.9c0.9,0.2,1.6,1,1.6,1.9
				C34.7,124,34,124.8,33.1,125z"/>
		</g>
	</g>
	<g>
		<g>
			<path class="st0" d="M32.8,175.5h-8.3v-8.3c0-0.3-0.3-0.6-0.6-0.6c-5.3,0-9.6,4.3-9.6,9.6s4.3,9.6,9.6,9.6s9.6-4.3,9.6-9.6
				C33.4,175.8,33.1,175.5,32.8,175.5z M23.9,184.5c-4.6,0-8.3-3.7-8.3-8.3c0-4.4,3.4-8,7.7-8.3v8.3c0,0.3,0.3,0.6,0.6,0.6h8.3
				C31.9,181.1,28.3,184.5,23.9,184.5z"/>
			<path class="st0" d="M35.7,173.8c0-2.3-0.9-4.6-2.4-6.3c-1.8-2.1-4.4-3.2-7.2-3.2c-0.3,0-0.6,0.3-0.6,0.6v8.9
				c0,0.3,0.3,0.6,0.6,0.6H35l0,0C35.4,174.5,35.7,174.2,35.7,173.8L35.7,173.8z M26.8,173.2v-7.7c2.2,0.2,4.2,1.2,5.6,2.8
				c1.2,1.4,1.9,3.1,2.1,4.9H26.8L26.8,173.2z"/>
		</g>
	</g>
	<g>
		<path class="st0" d="M35.6,224.3h-1v-4.7c0-1.1-0.9-2.1-2.1-2.1h-1.4l-1.4-2.6c-0.2-0.4-0.6-0.6-1.1-0.6c-0.2,0-0.4,0.1-0.6,0.2
			l-5.5,3h-6.1c-1.1,0-2.1,0.9-2.1,2.1v14.1c0,1.1,0.9,2.1,2.1,2.1h16.1c1.1,0,2.1-0.9,2.1-2.1v-4.1h1V224.3L35.6,224.3z
			 M32.5,218.3c0.6,0,1.1,0.5,1.2,1.1h-1.5l-0.6-1.1H32.5z M28.4,215.2c0.2-0.1,0.5,0,0.6,0.2l2.3,4.1H20.8L28.4,215.2z M33.7,233.7
			c0,0.7-0.6,1.2-1.2,1.2h-16c-0.7,0-1.2-0.6-1.2-1.2v-14.1c0-0.7,0.6-1.2,1.2-1.2h4.6l-2,1.1h-2.4c-0.2,0-0.4,0.2-0.4,0.4
			s0.2,0.4,0.4,0.4h0.9h15h1.1v4h-3c-1.4,0-2.5,1.1-2.5,2.5v0.2c0,1.4,1.1,2.5,2.5,2.5h3L33.7,233.7L33.7,233.7z M34.8,228.7h-0.2
			h-3.8c-0.9,0-1.7-0.8-1.7-1.7v-0.2c0-0.9,0.8-1.7,1.7-1.7h3.8h0.2V228.7z M32,226.9c0,0.5-0.4,0.9-0.9,0.9s-0.9-0.4-0.9-0.9
			s0.4-0.9,0.9-0.9S32,226.4,32,226.9z"/>
	</g>
	<g>
		<path class="st0" d="M25,276.2c3.2,0,5.7-2.6,5.7-5.7c0-3.2-2.6-5.7-5.7-5.7s-5.7,2.6-5.7,5.7S21.8,276.2,25,276.2z M25,266.3
			c2.3,0,4.2,1.9,4.2,4.2s-1.9,4.2-4.2,4.2s-4.2-1.9-4.2-4.2S22.7,266.3,25,266.3z"/>
		<path class="st0" d="M15.1,285.2H35c0.4,0,0.8-0.3,0.8-0.8c0-4-3.2-7.2-7.2-7.2h-7c-4,0-7.2,3.2-7.2,7.2
			C14.3,284.9,14.6,285.2,15.1,285.2z M21.5,278.8h7c2.9,0,5.3,2.1,5.6,4.9H15.9C16.2,280.9,18.6,278.8,21.5,278.8z"/>
	</g>
	<g>
		<path class="st0" d="M15.5,372.3c0.5,0.2,1,0,1.2-0.5c1.3-3.4,4.6-5.7,8.3-5.7s7,2.2,8.3,5.7c0.1,0.4,0.5,0.6,0.8,0.6
			c0.1,0,0.2,0,0.3-0.1c0.5-0.2,0.7-0.7,0.5-1.2c-1.6-4.1-5.5-6.8-10-6.8s-8.4,2.7-10,6.8C14.8,371.6,15.1,372.1,15.5,372.3z"/>
		<path class="st0" d="M32.1,374.2c-0.4-3.6-3.4-6.3-7.1-6.3s-6.7,2.8-7.1,6.3c-2.1,0.4-3.6,2.2-3.6,4.4c0,2.5,2,4.5,4.5,4.5
			c0.5,0,0.9-0.4,0.9-0.9V375c0-3,2.4-5.4,5.4-5.4s5.4,2.4,5.4,5.4v8c0,0.5-0.4,0.9-0.9,0.9h-1.8c-0.5,0-0.9-0.4-0.9-0.9
			s-0.4-0.9-0.9-0.9s-0.9,0.4-0.9,0.9c0,1.5,1.2,2.7,2.7,2.7h1.8c1.5,0,2.7-1.2,2.7-2.7v-0.1c2-0.4,3.6-2.2,3.6-4.4
			C35.7,376.4,34.1,374.6,32.1,374.2z M16.1,378.6c0-1.2,0.7-2.2,1.8-2.5v5C16.8,380.7,16.1,379.7,16.1,378.6z M32.1,381.1v-5
			c1,0.4,1.8,1.4,1.8,2.5S33.2,380.7,32.1,381.1z"/>
	</g>
	<g>
		<g>
			<path class="st0" d="M13.5,27.1h2v8c0,0.5,0.4,0.9,0.9,0.9h5.9c0.5,0,0.9-0.4,0.9-0.9v-5.9h3.6v5.9c0,0.5,0.4,0.9,0.9,0.9h5.6
				c0.5,0,0.9-0.4,0.9-0.9v-8h2.4c0.3,0,0.7-0.2,0.8-0.5s0.1-0.7-0.2-0.9L25.9,14.3c-0.3-0.3-0.9-0.3-1.2,0L13,25.6
				c-0.3,0.2-0.3,0.6-0.2,0.9C12.9,26.9,13.2,27.1,13.5,27.1z M25.2,16.1l9.2,9.3h-1.2c-0.5,0-0.9,0.4-0.9,0.9v8h-3.9v-5.9
				c0-0.5-0.4-0.9-0.9-0.9h-5.3c-0.5,0-0.9,0.4-0.9,0.9v5.9h-4.2v-8c0-0.5-0.4-0.9-0.9-0.9h-0.7L25.2,16.1z"/>
		</g>
	</g>
	<g>
		<path class="st0" d="M20.7,78.4h11.8c1.3,0,2.4-1.1,2.4-2.4v-5l0,0l0,0l0,0l0,0l0,0l0,0l0,0l0,0l0,0l0,0l0,0l0,0l0,0l0,0l0,0l0,0
			l0,0l0,0l0,0l0,0l0,0l0,0l0,0l0,0l0,0l0,0l0,0l0,0l0,0l0,0l-15-2.1v-2.1c0,0,0,0,0-0.1l0,0l0,0l0,0l0,0l0,0l0,0l0,0l0,0l0,0l0,0
			l0,0l0,0l0,0l0,0l0,0l0,0l0,0l0,0l0,0l0,0c0,0,0,0-0.1,0l-3.2-1.4c-0.3-0.1-0.7,0-0.8,0.3s0,0.7,0.3,0.8l2.9,1.2v2.7v0.4V73v3v3.7
			c0,1.2,0.9,2.3,2.1,2.4c-0.2,0.4-0.3,0.8-0.3,1.2c0,1.3,1.1,2.4,2.4,2.4s2.4-1.1,2.4-2.4c0-0.4-0.1-0.9-0.3-1.2h5.3
			c-0.2,0.4-0.3,0.8-0.3,1.2c0,1.3,1.1,2.4,2.4,2.4c1.3,0,2.4-1.1,2.4-2.4s-1.1-2.4-2.4-2.4h-12c-0.7,0-1.2-0.6-1.2-1.2v-1.6
			C19.8,78.3,20.3,78.4,20.7,78.4z M23.7,83.3c0,0.7-0.5,1.2-1.2,1.2s-1.2-0.5-1.2-1.2s0.5-1.2,1.2-1.2
			C23.1,82.1,23.7,82.6,23.7,83.3z M33.2,83.3c0,0.7-0.5,1.2-1.2,1.2s-1.2-0.5-1.2-1.2s0.5-1.2,1.2-1.2
			C32.6,82.1,33.2,82.6,33.2,83.3z M32.5,77.2H20.7c-0.7,0-1.2-0.6-1.2-1.2v-3v-3.3v-0.2l14.3,2V76C33.8,76.6,33.2,77.2,32.5,77.2z"
			/>
	</g>
	<g>
		<g>
			<g>
				<circle class="st1" cx="75" cy="330.1" r="1"/>
				<path class="st1" d="M75,314.3c-5.9,0-10.7,4.8-10.7,10.7c0,5.9,4.8,10.7,10.7,10.7c5.9,0,10.7-4.8,10.7-10.7
					C85.7,319.1,80.9,314.3,75,314.3z M75,334c-5,0-9-4-9-9s4-9,9-9s9,4,9,9S80,334,75,334z"/>
				<path class="st1" d="M75,319.7c-1.8,0-3.3,1.5-3.3,3.3c0,0.5,0.4,0.8,0.8,0.8c0.5,0,0.8-0.4,0.8-0.8c0-0.9,0.8-1.7,1.7-1.7
					s1.7,0.8,1.7,1.7s-0.8,1.7-1.7,1.7c-0.5,0-0.8,0.4-0.8,0.8v2.1c0,0.5,0.4,0.8,0.8,0.8s0.8-0.4,0.8-0.8v-1.4
					c1.4-0.4,2.5-1.7,2.5-3.2C78.3,321.2,76.8,319.7,75,319.7z"/>
			</g>
		</g>
	</g>
	<g>
		<g>
			<g>
				<path class="st1" d="M75,433.9h-8c-0.5,0-0.9-0.4-0.9-0.9v-16c0-0.5,0.4-0.9,0.9-0.9h8c0.5,0,0.9-0.4,0.9-0.9s-0.4-0.9-0.9-0.9
					h-8c-1.5,0-2.7,1.2-2.7,2.7v16c0,1.5,1.2,2.7,2.7,2.7h8c0.5,0,0.9-0.4,0.9-0.9C75.9,434.3,75.5,433.9,75,433.9z"/>
			</g>
		</g>
		<g>
			<g>
				<path class="st1" d="M85.4,424.4L80,419c-0.3-0.3-0.9-0.3-1.3,0c-0.3,0.3-0.3,0.9,0,1.3l3.9,3.8H72.3c-0.5,0-0.9,0.4-0.9,0.9
					s0.4,0.9,0.9,0.9h10.4l-3.9,3.8c-0.4,0.3-0.4,0.9,0,1.3c0.2,0.2,0.4,0.3,0.6,0.3s0.5-0.1,0.6-0.3l5.4-5.3
					c0.2-0.2,0.3-0.4,0.3-0.6C85.7,424.8,85.6,424.5,85.4,424.4z"/>
			</g>
		</g>
	</g>
	<g>
		<g>
			<path class="st1" d="M83.1,120.1v-3.4c0-0.4-0.2-0.7-0.5-0.9c-0.3-0.2-0.7-0.2-1.1,0c-3.2,1.8-6.6,2.8-10.3,3.1h-3.3
				c-0.8,0-1.5,0.6-1.6,1.4h-0.7c-0.7,0-1.3,0.6-1.3,1.3v2.9c0,0.7,0.6,1.3,1.3,1.3h0.7c0.1,0.6,0.4,1.1,1,1.3l2.4,6.6
				c0.2,0.4,0.5,0.7,1,0.7h2.4c0.3,0,0.7-0.2,0.9-0.4c0.2-0.3,0.2-0.6,0.1-1l-2.1-5.7c3.4,0.3,6.6,1.4,9.5,3
				c0.2,0.1,0.3,0.1,0.5,0.1s0.4,0,0.5-0.1c0.3-0.2,0.5-0.5,0.5-0.9V126c1.5-0.2,2.6-1.5,2.6-3C85.7,121.5,84.6,120.2,83.1,120.1z
				 M66.3,124.8h-0.7c-0.2,0-0.3-0.1-0.3-0.3v-2.9c0-0.2,0.1-0.3,0.3-0.3h0.7V124.8z M67.7,126.2c-0.2-0.1-0.3-0.3-0.3-0.5v-5.2l0,0
				c0-0.3,0.3-0.6,0.6-0.6h2.8v6.4c0,0-2.8,0-2.9,0C67.8,126.2,67.8,126.2,67.7,126.2z M73.1,133.4L73.1,133.4L73.1,133.4h-2.4l0,0
				l-2.2-6.1h2.4L73.1,133.4z M82.1,129.4C82.1,129.5,82.1,129.5,82.1,129.4C82,129.5,82,129.5,82.1,129.4
				c-3.2-1.8-6.7-2.8-10.3-3.2v-6.5c3.6-0.3,7.1-1.4,10.3-3.2l0,0l0,0V129.4z M83.1,125v-3.9c0.9,0.2,1.6,1,1.6,1.9
				C84.7,124,84,124.8,83.1,125z"/>
		</g>
	</g>
	<g>
		<g>
			<path class="st1" d="M82.8,175.5h-8.3v-8.3c0-0.3-0.3-0.6-0.6-0.6c-5.3,0-9.6,4.3-9.6,9.6s4.3,9.6,9.6,9.6c5.3,0,9.6-4.3,9.6-9.6
				C83.4,175.8,83.1,175.5,82.8,175.5z M73.9,184.5c-4.6,0-8.3-3.7-8.3-8.3c0-4.4,3.4-8,7.7-8.3v8.3c0,0.3,0.3,0.6,0.6,0.6h8.3
				C81.9,181.1,78.3,184.5,73.9,184.5z"/>
			<path class="st1" d="M85.7,173.8c0-2.3-0.9-4.6-2.4-6.3c-1.8-2.1-4.4-3.2-7.2-3.2c-0.3,0-0.6,0.3-0.6,0.6v8.9
				c0,0.3,0.3,0.6,0.6,0.6H85l0,0C85.4,174.5,85.7,174.2,85.7,173.8L85.7,173.8z M76.8,173.2v-7.7c2.2,0.2,4.2,1.2,5.6,2.8
				c1.2,1.4,1.9,3.1,2.1,4.9H76.8L76.8,173.2z"/>
		</g>
	</g>
	<g>
		<path class="st1" d="M85.6,224.3h-1v-4.7c0-1.1-0.9-2.1-2.1-2.1h-1.4l-1.4-2.6c-0.2-0.4-0.6-0.6-1.1-0.6c-0.2,0-0.4,0.1-0.6,0.2
			l-5.5,3h-6.1c-1.1,0-2.1,0.9-2.1,2.1v14.1c0,1.1,0.9,2.1,2.1,2.1h16.1c1.1,0,2.1-0.9,2.1-2.1v-4.1h1V224.3L85.6,224.3z
			 M82.5,218.3c0.6,0,1.1,0.5,1.2,1.1h-1.5l-0.6-1.1H82.5z M78.4,215.2c0.2-0.1,0.5,0,0.6,0.2l2.3,4.1H70.8L78.4,215.2z M83.7,233.7
			c0,0.7-0.6,1.2-1.2,1.2h-16c-0.7,0-1.2-0.6-1.2-1.2v-14.1c0-0.7,0.6-1.2,1.2-1.2h4.6l-2,1.1h-2.4c-0.2,0-0.4,0.2-0.4,0.4
			s0.2,0.4,0.4,0.4h0.9h15h1.1v4h-3c-1.4,0-2.5,1.1-2.5,2.5v0.2c0,1.4,1.1,2.5,2.5,2.5h3V233.7L83.7,233.7z M84.8,228.7h-0.2h-3.8
			c-0.9,0-1.7-0.8-1.7-1.7v-0.2c0-0.9,0.8-1.7,1.7-1.7h3.8h0.2V228.7z M82,226.9c0,0.5-0.4,0.9-0.9,0.9s-0.9-0.4-0.9-0.9
			s0.4-0.9,0.9-0.9S82,226.4,82,226.9z"/>
	</g>
	<g>
		<path class="st1" d="M75,276.2c3.2,0,5.7-2.6,5.7-5.7c0-3.2-2.6-5.7-5.7-5.7s-5.7,2.6-5.7,5.7S71.8,276.2,75,276.2z M75,266.3
			c2.3,0,4.2,1.9,4.2,4.2s-1.9,4.2-4.2,4.2s-4.2-1.9-4.2-4.2S72.7,266.3,75,266.3z"/>
		<path class="st1" d="M65.1,285.2H85c0.4,0,0.8-0.3,0.8-0.8c0-4-3.2-7.2-7.2-7.2h-7c-4,0-7.2,3.2-7.2,7.2
			C64.3,284.9,64.6,285.2,65.1,285.2z M71.5,278.8h7c2.9,0,5.3,2.1,5.6,4.9H65.9C66.2,280.9,68.6,278.8,71.5,278.8z"/>
	</g>
	<g>
		<path class="st1" d="M65.5,372.3c0.5,0.2,1,0,1.2-0.5c1.3-3.4,4.6-5.7,8.3-5.7s7,2.2,8.3,5.7c0.1,0.4,0.5,0.6,0.8,0.6
			c0.1,0,0.2,0,0.3-0.1c0.5-0.2,0.7-0.7,0.5-1.2c-1.6-4.1-5.5-6.8-10-6.8s-8.4,2.7-10,6.8C64.8,371.6,65.1,372.1,65.5,372.3z"/>
		<path class="st1" d="M82.1,374.2c-0.4-3.6-3.4-6.3-7.1-6.3s-6.7,2.8-7.1,6.3c-2.1,0.4-3.6,2.2-3.6,4.4c0,2.5,2,4.5,4.5,4.5
			c0.5,0,0.9-0.4,0.9-0.9V375c0-3,2.4-5.4,5.4-5.4s5.4,2.4,5.4,5.4v8c0,0.5-0.4,0.9-0.9,0.9h-1.8c-0.5,0-0.9-0.4-0.9-0.9
			s-0.4-0.9-0.9-0.9s-0.9,0.4-0.9,0.9c0,1.5,1.2,2.7,2.7,2.7h1.8c1.5,0,2.7-1.2,2.7-2.7v-0.1c2-0.4,3.6-2.2,3.6-4.4
			C85.7,376.4,84.1,374.6,82.1,374.2z M66.1,378.6c0-1.2,0.7-2.2,1.8-2.5v5C66.8,380.7,66.1,379.7,66.1,378.6z M82.1,381.1v-5
			c1,0.4,1.8,1.4,1.8,2.5S83.2,380.7,82.1,381.1z"/>
	</g>
	<g>
		<g>
			<path class="st1" d="M63.5,27.1h2v8c0,0.5,0.4,0.9,0.9,0.9h5.9c0.5,0,0.9-0.4,0.9-0.9v-5.9h3.6v5.9c0,0.5,0.4,0.9,0.9,0.9h5.6
				c0.5,0,0.9-0.4,0.9-0.9v-8h2.4c0.3,0,0.7-0.2,0.8-0.5s0.1-0.7-0.2-0.9L75.9,14.3c-0.3-0.3-0.9-0.3-1.2,0L63,25.6
				c-0.3,0.2-0.3,0.6-0.2,0.9C62.9,26.9,63.2,27.1,63.5,27.1z M75.2,16.1l9.2,9.3h-1.2c-0.5,0-0.9,0.4-0.9,0.9v8h-3.9v-5.9
				c0-0.5-0.4-0.9-0.9-0.9h-5.3c-0.5,0-0.9,0.4-0.9,0.9v5.9h-4.2v-8c0-0.5-0.4-0.9-0.9-0.9h-0.7L75.2,16.1z"/>
		</g>
	</g>
	<g>
		<path class="st1" d="M70.7,78.4h11.8c1.3,0,2.4-1.1,2.4-2.4v-5l0,0l0,0l0,0l0,0l0,0l0,0l0,0l0,0l0,0l0,0l0,0l0,0l0,0l0,0l0,0l0,0
			l0,0l0,0l0,0l0,0l0,0l0,0l0,0l0,0l0,0l0,0l0,0l0,0l0,0l0,0l-15-2.1v-2.1c0,0,0,0,0-0.1l0,0l0,0l0,0l0,0l0,0l0,0l0,0l0,0l0,0l0,0
			l0,0l0,0l0,0l0,0l0,0l0,0l0,0l0,0l0,0l0,0c0,0,0,0-0.1,0l-3.2-1.4c-0.3-0.1-0.7,0-0.8,0.3c-0.1,0.3,0,0.7,0.3,0.8l2.9,1.2v2.7v0.4
			V73v3v3.7c0,1.2,0.9,2.3,2.1,2.4c-0.2,0.4-0.3,0.8-0.3,1.2c0,1.3,1.1,2.4,2.4,2.4s2.4-1.1,2.4-2.4c0-0.4-0.1-0.9-0.3-1.2h5.3
			c-0.2,0.4-0.3,0.8-0.3,1.2c0,1.3,1.1,2.4,2.4,2.4s2.4-1.1,2.4-2.4s-1.1-2.4-2.4-2.4h-12c-0.7,0-1.2-0.6-1.2-1.2v-1.6
			C69.8,78.3,70.3,78.4,70.7,78.4z M73.7,83.3c0,0.7-0.5,1.2-1.2,1.2s-1.2-0.5-1.2-1.2s0.5-1.2,1.2-1.2
			C73.1,82.1,73.7,82.6,73.7,83.3z M83.2,83.3c0,0.7-0.5,1.2-1.2,1.2s-1.2-0.5-1.2-1.2s0.5-1.2,1.2-1.2
			C82.6,82.1,83.2,82.6,83.2,83.3z M82.5,77.2H70.7c-0.7,0-1.2-0.6-1.2-1.2v-3v-3.3v-0.2l14.3,2V76C83.8,76.6,83.2,77.2,82.5,77.2z"
			/>
	</g>
	<path class="st2" d="M27,525.2c-0.1-0.1-0.1-0.3,0-0.4l4.8-4.8c0.1-0.1,0.2-0.3,0.2-0.4s-0.1-0.3-0.2-0.4l-0.9-0.9
		c-0.1-0.1-0.3-0.2-0.4-0.2c-0.2,0-0.3,0.1-0.4,0.2l-4.8,4.8c-0.1,0.1-0.3,0.1-0.4,0l-4.8-4.8c-0.1-0.1-0.3-0.2-0.4-0.2
		s-0.3,0.1-0.4,0.2l-0.9,0.9c-0.1,0.1-0.2,0.3-0.2,0.4s0.1,0.3,0.2,0.4l4.8,4.8c0.1,0.1,0.1,0.3,0,0.4l-4.8,4.8
		c-0.1,0.1-0.2,0.3-0.2,0.4s0.1,0.3,0.2,0.4l0.9,0.9c0.1,0.1,0.3,0.2,0.4,0.2s0.3-0.1,0.4-0.2l4.8-4.8c0.1-0.1,0.3-0.1,0.4,0
		l4.8,4.8c0.1,0.1,0.3,0.2,0.4,0.2s0.3-0.1,0.4-0.2l0.9-0.9c0.1-0.1,0.2-0.3,0.2-0.4s-0.1-0.3-0.2-0.4L27,525.2z"/>
	<g class="st3">
		<path class="st4" d="M26.3,573.6h3.5v2.5h-3.5v4h-2.7v-4h-3.5v-2.5h3.5v-3.8h2.7V573.6z"/>
	</g>
	<g class="st3">
		<g id="Pencil">
			<g>
				<path class="st4" d="M31.2,468.8c-0.5-0.5-1.1-0.8-1.8-0.8s-1.3,0.3-1.8,0.8l-7.7,7.7c0,0-0.1,0.1-0.1,0.2l-1.8,4.8
					c-0.1,0.2,0,0.3,0.1,0.5c0.1,0.1,0.2,0.1,0.3,0.1h0.1l4.4-1.3c0.1,0,0.1-0.1,0.2-0.1l8.1-8.1c0.5-0.5,0.8-1.1,0.8-1.8
					C32,469.9,31.7,469.2,31.2,468.8z M22.4,479.9l-1.6,0.5c-0.1-0.3-0.2-0.5-0.4-0.7c-0.2-0.2-0.4-0.3-0.6-0.4l0.7-2.1h1v0.9
					c0,0.2,0.2,0.4,0.4,0.4h0.8L22.4,479.9z M28.9,473.5l-5.3,5.3l0.2-0.7c0-0.1,0-0.3-0.1-0.4s-0.2-0.2-0.3-0.2h-0.9v-0.9
					c0-0.2-0.2-0.4-0.4-0.4h-0.7l5.2-5.2l0,0c0.3-0.3,0.7-0.5,1.2-0.5s0.9,0.2,1.2,0.5c0.3,0.3,0.5,0.7,0.5,1.2
					S29.2,473.2,28.9,473.5z M30.6,471.8l-0.4,0.4c0-0.6-0.3-1.2-0.7-1.7c-0.4-0.4-1-0.7-1.7-0.7l0.4-0.4l0,0
					c0.3-0.3,0.7-0.5,1.2-0.5s0.9,0.2,1.2,0.5c0.3,0.3,0.5,0.7,0.5,1.2C31.1,471,30.9,471.5,30.6,471.8z M27.8,471.6l-4.4,4.4
					c-0.2,0.2-0.2,0.4,0,0.6c0.1,0.1,0.2,0.1,0.3,0.1s0.2,0,0.3-0.1l4.4-4.4c0.2-0.2,0.2-0.4,0-0.6
					C28.2,471.5,27.9,471.5,27.8,471.6z"/>
			</g>
		</g>
	</g>
</g>
</svg>
